<?xml version="1.0" encoding="utf-8"?>
<!-- Generator: Adobe Illustrator 22.1.0, SVG Export Plug-In . SVG Version: 6.00 Build 0)  -->
<svg version="1.1" id="Camada_1" xmlns="http://www.w3.org/2000/svg" xmlns:xlink="http://www.w3.org/1999/xlink" x="0px" y="0px"
	 viewBox="0 0 762.3 808.5" style="enable-background:new 0 0 762.3 808.5;" xml:space="preserve">
<style type="text/css">
	.st0{fill:#F4ECC2;}
	.st1{fill:#FF303E;}
	.st2{fill:#008AA7;}
	.st3{fill:#AEBC19;}
</style>
<g>
	<g id="XMLID_9_">
		<g>
			<path class="st0" d="M691.1,116.1c5.9-3.5,5.9-0.5,4.5,4.1C694.1,118.9,692.6,117.5,691.1,116.1z"/>
			<path class="st1" d="M503.4,371.6c114.3-43.1,179.4-128.4,192.2-251.4c1.4-4.6,1.4-7.6-4.5-4.1
				c-88.4,62.4-176.7,124.8-265.1,187.2c-19.3,13.8-38.5,27.7-57.8,41.6c-26.7,18.1-54.1,35.3-79.9,54.5
				c-65.4,48.6-53,145.2,22.2,177.3c-9.8,20.1-22.8,38-38.2,54.2c-98.2-52-115.8-172.9-56.1-250.5c25.2-32.7,62.1-51,94.2-75.4
				c13.4-10.1,28.6-17.8,40.2-30.2c19.8-10,36.7-24.2,54.5-37.2C510.2,163.4,615.3,89.3,720.4,15.2c3.8-2.7,8.1-5,11.5-8.2
				c12.3-11.4,17.9-8.8,21.3,7.6c12.5,60.4,13.3,120.8-5.2,179.8c-42.3,135.2-132.8,219.8-270.8,253.5c-15,3.6-20.1,3.8-19.6-15.6
				C458.4,399,469.6,384.4,503.4,371.6z"/>
			<path class="st2" d="M413.7,500.8c-40.6,137.6-128,235.7-255.6,300c-19.5,9.8-36.6,10-55.7,2.3c-19.2-7.7-38.5-15.3-56.5-30.6
				c91.4-24.3,167.9-68.7,226.4-141.6c15.4-16.2,28.3-34.1,38.2-54.2c43.4-71.3,62-148.7,57.8-231.8c19.3-13.9,38.5-27.8,57.8-41.6
				C441.7,370.4,432.6,436.2,413.7,500.8z"/>
			<path class="st2" d="M405,237.5c-17.8,13-34.7,27.2-54.5,37.2c-18.9-35.8-48.5-55.4-89.1-56.2c-43.4-0.9-71.2,38.3-55.1,78.6
				c4.5,11.2,2.9,16.1-6.6,22.3c-22.2,14.7-43.7,30.5-65.3,45.7c-3.7-4.2-1.3-6.6-0.3-8.7c9.7-18.4,10.7-35.7,6-57.3
				c-19.7-89.2,61-162.7,153.4-142.2C342.3,167.8,378.3,196.2,405,237.5z"/>
			<path class="st2" d="M258.8,257.5c11.9,1.8,18.2,7.5,17.5,19.1c-0.6,10.4-6.5,15.9-16.9,16.2c-11.6,0.2-17.8-6.6-17.9-17.4
				C241.4,264,249,258.8,258.8,257.5z"/>
			<path class="st1" d="M201.5,672.4c-10.3,11.6-20.1,15.5-28.9,19.9c-40.4,20.1-83.3,31-128.6,32.2c-11.1,0.3-17.8-3.4-23.1-12.8
				C13.2,698,6,684.3,0.9,666.6C66.8,690.4,131.6,693.4,201.5,672.4z"/>
		</g>
		<g>
		</g>
	</g>
</g>
<g>
	<path class="st3" d="M38.1,310c12.1-8.4,22.8-20.1,39.7-17.5c4,0.6,9.9-0.3,11.3,3.7c1.9,5.4-4.4,7.2-7.8,9.8
		c-13.5,10.2-28.1,11.3-43.3,3.9C38.1,309.9,38.1,310,38.1,310z"/>
	<path class="st3" d="M67.1,229.5c6.4,10.4,7.7,21.8,5.8,33.5c-1.5,9.5-5.5,10.1-12.1,3.4c-12.3-12.5-17.2-27.5-15.7-44.6
		c0.3-3.8-0.7-9.5,4.4-10.8c4.6-1.2,7.4,3.4,10,6.5C62.5,221.1,64.6,225.4,67.1,229.5z"/>
</g>
<g id="XMLID_8_">
	<g>
		<path class="st2" d="M162.8,328.7c-1.6,5.5-3.2,11-4.8,16.6c-7.3-10.6-26.7-35.5-63.4-51.3C61.2,279.5,30.8,280,17,281.1
			c3.2-4.4,6.4-8.7,9.7-13.1c15.5,0.3,43.8,2.5,74.9,16.3C133.4,298.3,153,317.6,162.8,328.7z"/>
	</g>
	<g>
	</g>
</g>
</svg>
